<svg xmlns="http://www.w3.org/2000/svg" width="16.717" height="15.968" viewBox="0 0 16.717 15.968">
  <path id="star-half-alt-solid" d="M15.86,5.349,11.3,4.684,9.256.555a1,1,0,0,0-1.794,0L5.421,4.684.856,5.348A1,1,0,0,0,.3,7.051l3.3,3.212L2.824,14.8a1,1,0,0,0,.986,1.168.986.986,0,0,0,.464-.117l4.084-2.142,4.084,2.143a1,1,0,0,0,1.45-1.051l-.781-4.537,3.3-3.212a1,1,0,0,0-.553-1.7Zm-3.8,3.842-.565.55.133.776.609,3.538L9.056,12.384l-.7-.366V2.125L9.95,5.346l.349.706.78.114,3.563.519Z" transform="translate(0 0)" fill="#87b03a"/>
</svg>
